<svg xmlns="http://www.w3.org/2000/svg" xmlns:xlink="http://www.w3.org/1999/xlink" width="500" zoomAndPan="magnify" viewBox="0 0 375 374.999991" height="500" preserveAspectRatio="xMidYMid meet" version="1.0"><defs><clipPath id="9ddd31faee"><path d="M 143.121094 37.5 L 231.621094 37.5 L 231.621094 337.5 L 143.121094 337.5 Z M 143.121094 37.5 " clip-rule="nonzero"/></clipPath></defs><g clip-path="url(#9ddd31faee)"><path fill="#9bbdf9" d="M 209.535156 254.714844 C 222.757812 262.367188 231.621094 276.71875 231.621094 293.113281 C 231.621094 317.59375 211.785156 337.488281 187.371094 337.488281 C 162.960938 337.488281 143.121094 317.59375 143.121094 293.113281 C 143.121094 276.71875 151.988281 262.367188 165.210938 254.714844 L 165.210938 59.664062 C 165.210938 47.496094 175.167969 37.511719 187.300781 37.511719 C 199.433594 37.511719 209.390625 47.496094 209.390625 59.664062 L 209.390625 100.175781 L 224.574219 100.175781 L 224.574219 105.859375 L 209.390625 105.859375 L 209.390625 141.707031 L 224.574219 141.707031 L 224.574219 147.390625 L 209.390625 147.390625 L 209.390625 183.238281 L 224.574219 183.238281 L 224.574219 188.921875 L 209.390625 188.921875 L 209.390625 224.769531 L 224.574219 224.769531 L 224.574219 230.453125 L 209.390625 230.453125 L 209.390625 254.933594 Z M 195.945312 262.949219 L 195.945312 171.359375 L 178.800781 171.359375 L 178.800781 262.949219 C 165.648438 266.664062 156.054688 278.761719 156.054688 293.113281 C 156.054688 310.453125 170.078125 324.515625 187.371094 324.515625 C 204.667969 324.515625 218.691406 310.453125 218.691406 293.113281 C 218.691406 278.761719 209.097656 266.664062 195.945312 262.949219 Z M 201.542969 259.304688 L 201.542969 59.664062 C 201.542969 51.867188 195.148438 45.457031 187.371094 45.457031 C 179.597656 45.457031 173.203125 51.867188 173.203125 59.664062 L 173.203125 259.304688 L 169.207031 261.636719 C 158.019531 268.121094 151.042969 280.144531 151.042969 293.1875 C 151.042969 313.296875 167.320312 329.542969 187.300781 329.542969 C 207.355469 329.542969 223.558594 313.222656 223.558594 293.1875 C 223.558594 280.144531 216.65625 268.195312 205.394531 261.636719 L 201.394531 259.304688 Z M 201.542969 259.304688 " fill-opacity="1" fill-rule="evenodd"/></g></svg>