<svg xmlns="http://www.w3.org/2000/svg" xmlns:xlink="http://www.w3.org/1999/xlink" width="500" zoomAndPan="magnify" viewBox="0 0 375 374.999991" height="500" preserveAspectRatio="xMidYMid meet" version="1.0"><defs><clipPath id="c19a6c69f5"><path d="M 45.394531 37.5 L 345.394531 37.5 L 345.394531 337.5 L 45.394531 337.5 Z M 45.394531 37.5 " clip-rule="nonzero"/></clipPath></defs><g clip-path="url(#c19a6c69f5)"><path fill="#000000" d="M 146.515625 63.757812 C 144.855469 62.097656 144.855469 59.40625 146.515625 57.746094 C 159.574219 44.691406 176.933594 37.5 195.398438 37.5 C 213.859375 37.5 231.21875 44.691406 244.277344 57.75 C 245.9375 59.410156 245.9375 62.101562 244.277344 63.761719 C 243.445312 64.59375 242.359375 65.007812 241.269531 65.007812 C 240.183594 65.007812 239.09375 64.59375 238.265625 63.761719 C 226.8125 52.308594 211.589844 46.003906 195.398438 46.003906 C 179.203125 46.003906 163.980469 52.308594 152.527344 63.757812 C 150.867188 65.417969 148.175781 65.417969 146.515625 63.757812 Z M 175.457031 86.6875 C 173.796875 88.347656 173.796875 91.039062 175.457031 92.699219 C 177.117188 94.359375 179.808594 94.359375 181.46875 92.699219 C 185.1875 88.980469 190.136719 86.929688 195.398438 86.929688 C 200.660156 86.929688 205.605469 88.980469 209.328125 92.699219 C 210.15625 93.527344 211.246094 93.945312 212.332031 93.945312 C 213.421875 93.945312 214.507812 93.527344 215.339844 92.699219 C 217 91.039062 217 88.347656 215.339844 86.6875 C 210.011719 81.359375 202.929688 78.425781 195.398438 78.425781 C 187.863281 78.429688 180.78125 81.359375 175.457031 86.6875 Z M 226.800781 79.476562 C 227.890625 79.476562 228.976562 79.058594 229.808594 78.230469 C 231.46875 76.570312 231.46875 73.878906 229.808594 72.21875 C 220.617188 63.027344 208.394531 57.964844 195.398438 57.964844 C 182.398438 57.964844 170.179688 63.027344 160.984375 72.21875 C 159.324219 73.878906 159.324219 76.570312 160.984375 78.230469 C 162.644531 79.890625 165.339844 79.890625 166.996094 78.230469 C 174.582031 70.644531 184.667969 66.464844 195.398438 66.464844 C 206.125 66.464844 216.210938 70.644531 223.796875 78.230469 C 224.625 79.0625 225.714844 79.476562 226.800781 79.476562 Z M 310.679688 153.089844 C 309.019531 151.429688 306.328125 151.429688 304.667969 153.089844 C 303.007812 154.75 303.007812 157.441406 304.667969 159.101562 C 312.253906 166.6875 316.429688 176.773438 316.429688 187.5 C 316.429688 198.226562 312.253906 208.3125 304.667969 215.898438 C 303.003906 217.558594 303.003906 220.25 304.667969 221.910156 C 305.496094 222.742188 306.582031 223.15625 307.671875 223.15625 C 308.761719 223.15625 309.847656 222.742188 310.679688 221.910156 C 319.871094 212.71875 324.933594 200.5 324.933594 187.5 C 324.933594 174.503906 319.871094 162.28125 310.679688 153.089844 Z M 296.207031 167.558594 C 294.546875 165.902344 291.855469 165.902344 290.195312 167.558594 C 288.535156 169.21875 288.535156 171.910156 290.195312 173.570312 C 293.917969 177.292969 295.964844 182.238281 295.964844 187.5 C 295.964844 192.761719 293.917969 197.710938 290.195312 201.429688 C 288.535156 203.089844 288.535156 205.78125 290.195312 207.441406 C 291.027344 208.273438 292.113281 208.6875 293.203125 208.6875 C 294.292969 208.6875 295.378906 208.273438 296.210938 207.441406 C 301.535156 202.117188 304.46875 195.035156 304.46875 187.5 C 304.46875 179.96875 301.535156 172.886719 296.207031 167.558594 Z M 325.148438 138.621094 C 323.488281 136.960938 320.796875 136.960938 319.136719 138.621094 C 317.476562 140.28125 317.476562 142.972656 319.136719 144.632812 C 330.585938 156.082031 336.894531 171.308594 336.894531 187.5 C 336.894531 203.691406 330.585938 218.917969 319.132812 230.367188 C 317.472656 232.027344 317.472656 234.71875 319.132812 236.378906 C 319.964844 237.210938 321.050781 237.625 322.140625 237.625 C 323.226562 237.625 324.316406 237.210938 325.144531 236.378906 C 338.203125 223.324219 345.394531 205.964844 345.394531 187.5 C 345.394531 169.035156 338.207031 151.675781 325.148438 138.621094 Z M 215.335938 288.3125 C 216.996094 286.652344 216.996094 283.960938 215.335938 282.300781 C 213.675781 280.640625 210.984375 280.640625 209.324219 282.300781 C 205.605469 286.019531 200.65625 288.070312 195.394531 288.070312 C 190.132812 288.070312 185.183594 286.019531 181.464844 282.300781 C 179.804688 280.640625 177.113281 280.640625 175.453125 282.300781 C 173.792969 283.960938 173.792969 286.652344 175.453125 288.3125 C 180.78125 293.640625 187.863281 296.574219 195.394531 296.574219 C 202.925781 296.574219 210.011719 293.636719 215.335938 288.3125 Z M 238.265625 311.242188 C 226.8125 322.691406 211.589844 328.996094 195.394531 328.996094 C 179.203125 328.996094 163.980469 322.691406 152.527344 311.238281 C 150.867188 309.578125 148.175781 309.578125 146.515625 311.238281 C 144.855469 312.898438 144.855469 315.589844 146.515625 317.25 C 159.574219 330.308594 176.933594 337.5 195.394531 337.5 C 213.859375 337.5 231.21875 330.308594 244.277344 317.253906 C 245.9375 315.59375 245.9375 312.902344 244.277344 311.242188 C 242.617188 309.582031 239.925781 309.582031 238.265625 311.242188 Z M 160.984375 296.769531 C 159.324219 298.429688 159.324219 301.121094 160.984375 302.78125 C 170.175781 311.972656 182.398438 317.035156 195.394531 317.035156 C 208.394531 317.035156 220.613281 311.972656 229.804688 302.78125 C 231.464844 301.121094 231.464844 298.429688 229.804688 296.769531 C 228.148438 295.109375 225.453125 295.109375 223.792969 296.769531 C 216.210938 304.355469 206.121094 308.535156 195.394531 308.535156 C 184.667969 308.535156 174.582031 304.355469 166.996094 296.769531 C 165.335938 295.109375 162.644531 295.109375 160.984375 296.769531 Z M 53.898438 187.5 C 53.898438 171.308594 60.207031 156.082031 71.660156 144.632812 C 73.316406 142.972656 73.320312 140.28125 71.660156 138.621094 C 70 136.960938 67.308594 136.960938 65.648438 138.621094 C 52.585938 151.675781 45.394531 169.035156 45.394531 187.5 C 45.394531 205.964844 52.585938 223.324219 65.644531 236.378906 C 66.472656 237.210938 67.5625 237.625 68.648438 237.625 C 69.738281 237.625 70.824219 237.210938 71.65625 236.378906 C 73.316406 234.71875 73.316406 232.027344 71.65625 230.367188 C 60.203125 218.917969 53.898438 203.691406 53.898438 187.5 Z M 100.597656 167.558594 C 98.9375 165.898438 96.246094 165.898438 94.585938 167.558594 C 89.257812 172.882812 86.324219 179.964844 86.324219 187.5 C 86.324219 195.03125 89.257812 202.113281 94.585938 207.441406 C 95.414062 208.269531 96.503906 208.683594 97.589844 208.683594 C 98.679688 208.683594 99.765625 208.269531 100.597656 207.441406 C 102.257812 205.78125 102.257812 203.085938 100.597656 201.429688 C 96.875 197.707031 94.828125 192.761719 94.828125 187.5 C 94.828125 182.234375 96.875 177.289062 100.597656 173.570312 C 102.257812 171.910156 102.257812 169.21875 100.597656 167.558594 Z M 74.363281 187.5 C 74.363281 176.773438 78.539062 166.6875 86.128906 159.097656 C 87.789062 157.4375 87.789062 154.746094 86.128906 153.085938 C 84.46875 151.429688 81.773438 151.425781 80.117188 153.089844 C 70.921875 162.28125 65.859375 174.5 65.859375 187.5 C 65.859375 200.496094 70.921875 212.71875 80.113281 221.910156 C 80.945312 222.738281 82.03125 223.15625 83.121094 223.15625 C 84.210938 223.15625 85.296875 222.738281 86.128906 221.910156 C 87.789062 220.25 87.789062 217.558594 86.128906 215.898438 C 78.539062 208.3125 74.363281 198.226562 74.363281 187.5 Z M 221.957031 173.84375 L 221.957031 183.25 L 226.898438 183.25 C 229.246094 183.25 231.148438 185.152344 231.148438 187.5 C 231.148438 189.847656 229.246094 191.75 226.898438 191.75 L 221.957031 191.75 L 221.957031 201.15625 L 226.898438 201.15625 C 229.246094 201.15625 231.148438 203.058594 231.148438 205.40625 C 231.148438 207.753906 229.246094 209.65625 226.898438 209.65625 L 220.238281 209.65625 C 219.523438 210.714844 218.609375 211.625 217.554688 212.339844 L 217.554688 219.003906 C 217.554688 221.351562 215.652344 223.253906 213.304688 223.253906 C 210.953125 223.253906 209.050781 221.351562 209.050781 219.003906 L 209.050781 214.0625 L 199.648438 214.0625 L 199.648438 219.003906 C 199.648438 221.351562 197.742188 223.253906 195.394531 223.253906 C 193.046875 223.253906 191.144531 221.351562 191.144531 219.003906 L 191.144531 214.0625 L 181.742188 214.0625 L 181.742188 219.003906 C 181.742188 221.351562 179.835938 223.253906 177.488281 223.253906 C 175.140625 223.253906 173.238281 221.351562 173.238281 219.003906 L 173.238281 212.339844 C 172.183594 211.625 171.269531 210.714844 170.554688 209.65625 L 163.894531 209.65625 C 161.546875 209.65625 159.644531 207.753906 159.644531 205.40625 C 159.644531 203.058594 161.546875 201.15625 163.894531 201.15625 L 168.835938 201.15625 L 168.835938 191.75 L 163.894531 191.75 C 161.546875 191.75 159.644531 189.847656 159.644531 187.5 C 159.644531 185.152344 161.546875 183.25 163.894531 183.25 L 168.835938 183.25 L 168.835938 173.84375 L 163.894531 173.84375 C 161.546875 173.84375 159.644531 171.941406 159.644531 169.59375 C 159.644531 167.246094 161.546875 165.34375 163.894531 165.34375 L 170.554688 165.34375 C 171.269531 164.285156 172.183594 163.375 173.238281 162.660156 L 173.238281 155.996094 C 173.238281 153.648438 175.140625 151.746094 177.488281 151.746094 C 179.835938 151.746094 181.742188 153.648438 181.742188 155.996094 L 181.742188 160.9375 L 191.144531 160.9375 L 191.144531 155.996094 C 191.144531 153.648438 193.046875 151.746094 195.394531 151.746094 C 197.742188 151.746094 199.648438 153.648438 199.648438 155.996094 L 199.648438 160.9375 L 209.050781 160.9375 L 209.050781 155.996094 C 209.050781 153.648438 210.953125 151.746094 213.304688 151.746094 C 215.652344 151.746094 217.554688 153.648438 217.554688 155.996094 L 217.554688 162.660156 C 218.609375 163.375 219.523438 164.285156 220.238281 165.34375 L 226.898438 165.34375 C 229.246094 165.34375 231.148438 167.246094 231.148438 169.59375 C 231.148438 171.941406 229.246094 173.84375 226.898438 173.84375 Z M 211.953125 205.558594 C 212.769531 205.558594 213.457031 204.871094 213.457031 204.054688 L 213.457031 170.941406 C 213.457031 170.128906 212.769531 169.441406 211.953125 169.441406 L 178.839844 169.441406 C 178.023438 169.441406 177.335938 170.128906 177.335938 170.941406 L 177.335938 204.054688 C 177.335938 204.871094 178.023438 205.558594 178.839844 205.558594 Z M 279.140625 182.976562 L 279.140625 193.621094 C 279.140625 201.984375 272.335938 208.785156 263.976562 208.785156 L 257.316406 208.785156 L 257.316406 230.296875 C 257.316406 240.839844 248.738281 249.417969 238.191406 249.417969 L 215.082031 249.417969 L 215.082031 256.078125 C 215.082031 264.441406 208.28125 271.242188 199.921875 271.242188 L 189.273438 271.242188 C 180.914062 271.242188 174.109375 264.441406 174.109375 256.078125 L 174.109375 249.417969 L 152.597656 249.417969 C 142.054688 249.417969 133.476562 240.839844 133.476562 230.296875 L 133.476562 207.1875 L 126.816406 207.1875 C 118.457031 207.1875 111.652344 200.386719 111.652344 192.023438 L 111.652344 181.375 C 111.652344 173.015625 118.457031 166.214844 126.816406 166.214844 L 133.476562 166.214844 L 133.476562 144.703125 C 133.476562 134.160156 142.054688 125.582031 152.597656 125.582031 L 175.707031 125.582031 L 175.707031 118.921875 C 175.707031 110.558594 182.511719 103.757812 190.871094 103.757812 L 201.519531 103.757812 C 209.878906 103.757812 216.683594 110.558594 216.683594 118.921875 L 216.683594 125.582031 L 238.191406 125.582031 C 248.738281 125.582031 257.316406 134.160156 257.316406 144.703125 L 257.316406 167.8125 L 263.976562 167.8125 C 272.335938 167.8125 279.140625 174.613281 279.140625 182.976562 Z M 133.476562 198.6875 L 133.476562 174.714844 L 126.816406 174.714844 C 123.144531 174.714844 120.15625 177.703125 120.15625 181.375 L 120.15625 192.023438 C 120.15625 195.695312 123.144531 198.6875 126.816406 198.6875 Z M 184.210938 125.582031 L 208.179688 125.582031 L 208.179688 118.921875 C 208.179688 115.246094 205.191406 112.257812 201.519531 112.257812 L 190.871094 112.257812 C 187.199219 112.257812 184.210938 115.246094 184.210938 118.921875 Z M 206.582031 249.417969 L 182.613281 249.417969 L 182.613281 256.078125 C 182.613281 259.753906 185.601562 262.742188 189.273438 262.742188 L 199.921875 262.742188 C 203.59375 262.742188 206.582031 259.753906 206.582031 256.078125 Z M 248.8125 144.703125 C 248.8125 138.847656 244.046875 134.082031 238.191406 134.082031 L 152.597656 134.082031 C 146.742188 134.082031 141.980469 138.847656 141.980469 144.703125 L 141.980469 230.296875 C 141.980469 236.152344 146.742188 240.914062 152.597656 240.914062 L 238.191406 240.914062 C 244.046875 240.914062 248.8125 236.152344 248.8125 230.296875 Z M 270.636719 182.976562 C 270.636719 179.304688 267.648438 176.3125 263.976562 176.3125 L 257.316406 176.3125 L 257.316406 200.285156 L 263.976562 200.285156 C 267.648438 200.285156 270.636719 197.296875 270.636719 193.621094 Z M 270.636719 182.976562 " fill-opacity="1" fill-rule="nonzero"/></g></svg>