<svg xmlns="http://www.w3.org/2000/svg" xmlns:xlink="http://www.w3.org/1999/xlink" width="500" zoomAndPan="magnify" viewBox="0 0 375 374.999991" height="500" preserveAspectRatio="xMidYMid meet" version="1.0"><defs><clipPath id="27d1ff9dbb"><path d="M 88.875 37.5 L 286.125 37.5 L 286.125 337 L 88.875 337 Z M 88.875 37.5 " clip-rule="nonzero"/></clipPath></defs><g clip-path="url(#27d1ff9dbb)"><path fill="#9bbdf9" d="M 187.5 317.914062 L 269.382812 164.65625 C 270.941406 160.183594 272.09375 155.574219 272.90625 150.898438 C 273.71875 146.152344 274.128906 141.273438 274.128906 136.253906 C 274.128906 112.328125 264.433594 90.636719 248.777344 74.980469 C 233.050781 59.320312 211.425781 49.628906 187.5 49.628906 C 163.574219 49.628906 141.949219 59.320312 126.222656 74.980469 C 110.566406 90.636719 100.871094 112.328125 100.871094 136.253906 C 100.871094 141.273438 101.28125 146.152344 102.09375 150.898438 C 102.90625 155.574219 104.058594 160.183594 105.617188 164.65625 Z M 187.5 82.367188 C 202.683594 82.367188 216.375 88.535156 226.273438 98.5 C 236.238281 108.398438 242.40625 122.089844 242.40625 137.273438 C 242.40625 140.390625 242.132812 143.441406 241.589844 146.492188 C 241.050781 149.542969 240.304688 152.523438 239.285156 155.4375 C 235.492188 166.285156 228.375 175.570312 219.15625 182.078125 C 210.207031 188.382812 199.292969 192.109375 187.5 192.109375 C 175.707031 192.109375 164.792969 188.382812 155.84375 182.078125 C 146.625 175.570312 139.578125 166.285156 135.78125 155.4375 L 135.714844 155.507812 C 134.695312 152.589844 133.949219 149.609375 133.410156 146.492188 C 132.867188 143.441406 132.59375 140.390625 132.59375 137.273438 C 132.59375 122.089844 138.761719 108.398438 148.726562 98.5 C 158.625 88.535156 172.316406 82.367188 187.5 82.367188 Z M 217.867188 106.90625 C 210.070312 99.179688 199.363281 94.367188 187.5 94.367188 C 175.636719 94.367188 164.929688 99.179688 157.132812 106.90625 C 149.40625 114.699219 144.59375 125.410156 144.59375 137.273438 C 144.59375 139.78125 144.796875 142.21875 145.203125 144.523438 C 145.609375 146.898438 146.21875 149.269531 146.964844 151.507812 C 149.949219 159.980469 155.507812 167.234375 162.691406 172.316406 C 169.671875 177.265625 178.214844 180.179688 187.5 180.179688 C 196.785156 180.179688 205.328125 177.265625 212.308594 172.316406 C 219.492188 167.234375 225.050781 159.980469 228.035156 151.507812 C 228.78125 149.269531 229.390625 146.964844 229.796875 144.523438 C 230.203125 142.21875 230.40625 139.78125 230.40625 137.273438 C 230.40625 125.410156 225.59375 114.699219 217.867188 106.90625 Z M 280.160156 169.742188 L 192.785156 333.300781 C 192.246094 334.386719 191.429688 335.269531 190.277344 335.808594 C 187.433594 337.371094 183.773438 336.285156 182.210938 333.371094 L 95.042969 170.148438 C 94.839844 169.742188 94.636719 169.402344 94.5 168.925781 C 92.671875 163.777344 91.246094 158.351562 90.296875 152.863281 C 89.417969 147.371094 88.875 141.882812 88.875 136.253906 C 88.875 109.007812 99.921875 84.402344 117.820312 66.507812 C 135.644531 48.679688 160.25 37.628906 187.5 37.628906 C 214.75 37.628906 239.355469 48.679688 257.179688 66.507812 C 275.078125 84.402344 286.125 109.007812 286.125 136.253906 C 286.125 141.882812 285.582031 147.371094 284.703125 152.863281 C 283.753906 158.351562 282.328125 163.777344 280.5 168.925781 C 280.429688 169.199219 280.296875 169.46875 280.160156 169.742188 Z M 280.160156 169.742188 " fill-opacity="1" fill-rule="nonzero"/></g></svg>