<svg xmlns="http://www.w3.org/2000/svg" xmlns:xlink="http://www.w3.org/1999/xlink" width="500" zoomAndPan="magnify" viewBox="0 0 375 374.999991" height="500" preserveAspectRatio="xMidYMid meet" version="1.0"><defs><clipPath id="b0ae6e3983"><path d="M 37.738281 123.1875 L 320.148438 123.1875 L 320.148438 252.179688 L 37.738281 252.179688 Z M 37.738281 123.1875 " clip-rule="nonzero"/></clipPath><clipPath id="4517b75f63"><path d="M 326 155 L 337.5 155 L 337.5 220 L 326 220 Z M 326 155 " clip-rule="nonzero"/></clipPath></defs><path fill="#9bbdf9" d="M 222.511719 235.644531 L 64.925781 235.644531 C 59.007812 235.644531 54.214844 230.832031 54.214844 224.898438 L 54.214844 150.464844 C 54.214844 144.53125 59.007812 139.71875 64.925781 139.71875 L 222.511719 139.71875 C 228.425781 139.71875 233.222656 144.53125 233.222656 150.464844 L 233.222656 224.898438 C 233.222656 230.832031 228.425781 235.644531 222.511719 235.644531 " fill-opacity="1" fill-rule="nonzero"/><g clip-path="url(#b0ae6e3983)"><path fill="#9bbdf9" d="M 311.132812 224.886719 C 311.132812 234.957031 302.980469 243.164062 292.941406 243.164062 L 64.917969 243.164062 C 54.878906 243.164062 46.726562 234.957031 46.726562 224.886719 L 46.726562 150.472656 C 46.726562 140.402344 54.878906 132.199219 64.917969 132.199219 L 292.941406 132.199219 C 302.980469 132.199219 311.132812 140.402344 311.132812 150.472656 Z M 292.941406 123.183594 L 64.917969 123.183594 C 49.933594 123.183594 37.738281 135.414062 37.738281 150.472656 L 37.738281 224.886719 C 37.738281 239.949219 49.933594 252.179688 64.917969 252.179688 L 292.941406 252.179688 C 307.925781 252.179688 320.121094 239.949219 320.121094 224.886719 L 320.121094 150.472656 C 320.121094 135.414062 307.925781 123.183594 292.941406 123.183594 " fill-opacity="1" fill-rule="nonzero"/></g><g clip-path="url(#4517b75f63)"><path fill="#9bbdf9" d="M 332.019531 219.414062 C 329.121094 219.414062 326.773438 217.0625 326.773438 214.15625 L 326.773438 161.207031 C 326.773438 158.300781 329.121094 155.945312 332.019531 155.945312 C 334.917969 155.945312 337.261719 158.300781 337.261719 161.207031 L 337.261719 214.15625 C 337.261719 217.0625 334.917969 219.414062 332.019531 219.414062 " fill-opacity="1" fill-rule="nonzero"/></g></svg>