<svg xmlns="http://www.w3.org/2000/svg" xmlns:xlink="http://www.w3.org/1999/xlink" width="500" zoomAndPan="magnify" viewBox="0 0 375 374.999991" height="500" preserveAspectRatio="xMidYMid meet" version="1.0"><defs><clipPath id="2e22051237"><path d="M 282 37.5 L 337.5 37.5 L 337.5 93 L 282 93 Z M 282 37.5 " clip-rule="nonzero"/></clipPath><clipPath id="c3b4870938"><path d="M 37.5 119 L 87 119 L 87 169 L 37.5 169 Z M 37.5 119 " clip-rule="nonzero"/></clipPath><clipPath id="d3bd788942"><path d="M 321 141 L 337.5 141 L 337.5 147 L 321 147 Z M 321 141 " clip-rule="nonzero"/></clipPath><clipPath id="45a5e08149"><path d="M 53 326 L 60 326 L 60 337.5 L 53 337.5 Z M 53 326 " clip-rule="nonzero"/></clipPath><clipPath id="077597a0ad"><path d="M 37.5 315 L 49 315 L 49 322 L 37.5 322 Z M 37.5 315 " clip-rule="nonzero"/></clipPath></defs><path fill="#9bbdf9" d="M 141.265625 145.78125 C 140.964844 145.78125 140.644531 145.738281 140.347656 145.632812 C 138.921875 145.121094 138.195312 143.566406 138.707031 142.136719 C 143.800781 127.882812 153.984375 116.3125 167.40625 109.539062 C 168.730469 108.878906 170.371094 109.390625 171.050781 110.730469 C 171.734375 112.09375 171.199219 113.734375 169.859375 114.394531 C 157.691406 120.53125 148.464844 131.035156 143.84375 143.96875 C 143.4375 145.097656 142.394531 145.78125 141.265625 145.78125 " fill-opacity="1" fill-rule="nonzero"/><path fill="#9bbdf9" d="M 257.558594 207.378906 C 257.066406 207.378906 256.554688 207.25 256.109375 206.953125 C 254.828125 206.144531 254.445312 204.460938 255.253906 203.203125 C 260.878906 194.402344 264.546875 184.6875 266.1875 174.355469 C 266.847656 170.347656 267.167969 166.234375 267.167969 162.144531 C 267.167969 120.488281 233.886719 86.589844 192.953125 86.589844 C 152.046875 86.589844 118.765625 120.488281 118.765625 162.144531 C 118.765625 166.214844 119.082031 170.328125 119.722656 174.332031 C 119.957031 175.824219 118.957031 177.207031 117.464844 177.464844 C 115.953125 177.675781 114.589844 176.699219 114.332031 175.183594 C 113.652344 170.902344 113.308594 166.511719 113.308594 162.144531 C 113.308594 117.484375 149.042969 81.136719 192.953125 81.136719 C 236.890625 81.136719 272.621094 117.484375 272.621094 162.144531 C 272.621094 166.535156 272.28125 170.921875 271.578125 175.207031 C 269.828125 186.308594 265.867188 196.703125 259.859375 206.121094 C 259.347656 206.933594 258.472656 207.378906 257.558594 207.378906 " fill-opacity="1" fill-rule="nonzero"/><path fill="#9bbdf9" d="M 236.015625 326.589844 C 220.035156 326.589844 204.609375 321.777344 191.421875 312.675781 C 181 305.519531 172.285156 295.824219 166.214844 284.617188 C 165.488281 283.296875 165.980469 281.632812 167.300781 280.929688 C 168.621094 280.207031 170.285156 280.695312 171.007812 282.015625 C 176.675781 292.457031 184.792969 301.511719 194.511719 308.203125 C 206.78125 316.660156 221.121094 321.136719 236.015625 321.136719 C 276.945312 321.136719 310.226562 287.238281 310.226562 245.5625 C 310.226562 216.5 293.542969 189.671875 267.71875 177.230469 C 266.355469 176.570312 265.78125 174.949219 266.441406 173.585938 C 267.101562 172.246094 268.742188 171.648438 270.085938 172.328125 C 297.785156 185.667969 315.683594 214.410156 315.683594 245.5625 C 315.683594 290.242188 279.949219 326.589844 236.015625 326.589844 " fill-opacity="1" fill-rule="nonzero"/><path fill="#9bbdf9" d="M 121.9375 296.464844 C 121.449219 296.464844 120.957031 296.335938 120.53125 296.078125 C 103.039062 285.53125 92.171875 266.164062 92.171875 245.5625 C 92.171875 244.046875 93.386719 242.832031 94.902344 242.832031 C 96.414062 242.832031 97.628906 244.046875 97.628906 245.5625 C 97.628906 264.269531 107.492188 281.847656 123.34375 291.414062 C 124.644531 292.179688 125.050781 293.863281 124.261719 295.140625 C 123.769531 295.996094 122.855469 296.464844 121.9375 296.464844 " fill-opacity="1" fill-rule="nonzero"/><path fill="#9bbdf9" d="M 100.527344 223.742188 C 100.121094 223.742188 99.714844 223.65625 99.332031 223.464844 C 97.988281 222.804688 97.414062 221.1875 98.074219 219.824219 C 101.890625 211.917969 107.492188 204.863281 114.246094 199.433594 C 115.417969 198.496094 117.144531 198.664062 118.082031 199.835938 C 119.019531 201.007812 118.828125 202.734375 117.675781 203.671875 C 111.519531 208.613281 106.449219 215.007812 102.976562 222.1875 C 102.507812 223.167969 101.527344 223.742188 100.527344 223.742188 " fill-opacity="1" fill-rule="nonzero"/><path fill="#9bbdf9" d="M 149.894531 326.589844 C 105.957031 326.589844 70.226562 290.242188 70.226562 245.5625 C 70.226562 214.410156 88.125 185.667969 115.84375 172.308594 C 121.832031 169.433594 128.140625 167.324219 134.660156 166.042969 C 136.128906 165.746094 137.578125 166.703125 137.875 168.195312 C 138.152344 169.667969 137.195312 171.09375 135.722656 171.390625 C 129.671875 172.585938 123.769531 174.546875 118.210938 177.207031 C 92.363281 189.671875 75.683594 216.5 75.683594 245.5625 C 75.683594 287.238281 108.964844 321.136719 149.894531 321.136719 C 164.785156 321.136719 179.148438 316.660156 191.421875 308.203125 C 192.65625 307.351562 194.339844 307.648438 195.191406 308.90625 C 196.066406 310.140625 195.746094 311.824219 194.511719 312.675781 C 181.320312 321.777344 165.894531 326.589844 149.894531 326.589844 " fill-opacity="1" fill-rule="nonzero"/><path fill="#9bbdf9" d="M 192.484375 162.484375 C 174.183594 162.484375 169.601562 181.660156 169.75 205.546875 C 169.878906 236.589844 173.03125 253.039062 192.785156 253.039062 C 212.515625 253.039062 215.644531 236.589844 215.816406 205.546875 C 215.945312 181.660156 211.363281 162.484375 192.484375 162.484375 Z M 193.0625 151.769531 C 224.382812 151.769531 228.238281 180.660156 228.109375 205.269531 C 227.960938 235.015625 224.105469 263.757812 192.785156 263.757812 C 161.441406 263.757812 157.734375 235.015625 157.4375 205.269531 C 157.4375 180.660156 161.164062 151.769531 193.0625 151.769531 " fill-opacity="1" fill-rule="nonzero"/><path fill="#9bbdf9" d="M 235.886719 274.773438 C 235.886719 274.773438 236.164062 277.734375 236.738281 278.90625 C 237.804688 281.058594 239.746094 281.972656 242.535156 281.972656 C 244.261719 281.972656 245.730469 281.3125 247.011719 280.140625 C 248.289062 278.96875 248.925781 277.246094 248.925781 275.027344 C 248.925781 272.109375 246.542969 270.128906 244.175781 269.148438 C 242.8125 268.59375 242.046875 268.296875 236.589844 268.296875 L 236.589844 262.03125 C 242.046875 261.988281 242.621094 261.710938 243.730469 261.199219 C 245.667969 260.347656 247.265625 258.601562 247.265625 255.980469 C 247.265625 254.296875 247.050781 252.910156 246.074219 251.847656 C 245.070312 250.78125 243.835938 250.25 242.046875 250.25 C 239.980469 250.25 238.550781 251.378906 237.570312 252.699219 C 236.613281 254 236.207031 252.953125 236.25 258.410156 L 228.089844 258.410156 C 228.175781 252.953125 228.558594 253.636719 229.238281 251.65625 C 229.941406 249.90625 231.074219 248.054688 232.605469 246.605469 C 233.734375 245.5625 235.097656 244.625 236.675781 244.070312 C 238.253906 243.535156 240.171875 243.195312 242.472656 243.195312 C 246.710938 243.195312 250.140625 244.261719 252.761719 246.457031 C 255.363281 248.671875 256.660156 251.589844 256.660156 255.296875 C 256.660156 257.917969 255.894531 260.113281 254.339844 261.925781 C 253.359375 263.054688 252.335938 263.800781 251.269531 264.226562 C 252.058594 264.226562 253.210938 264.90625 254.703125 266.269531 C 256.9375 268.339844 258.046875 271.171875 258.046875 274.75 C 258.046875 278.5 256.746094 281.824219 254.148438 284.679688 C 251.527344 287.535156 247.671875 288.964844 242.558594 288.964844 C 236.269531 288.964844 231.902344 287.195312 229.433594 283.082031 C 228.152344 280.886719 227.429688 280.226562 227.28125 274.773438 L 235.886719 274.773438 " fill-opacity="1" fill-rule="nonzero"/><g clip-path="url(#2e22051237)"><path fill="#9bbdf9" d="M 310.226562 42.953125 C 298.1875 42.953125 288.410156 52.734375 288.410156 64.773438 C 288.410156 76.8125 298.1875 86.589844 310.226562 86.589844 C 322.265625 86.589844 332.046875 76.8125 332.046875 64.773438 C 332.046875 52.734375 322.265625 42.953125 310.226562 42.953125 Z M 310.226562 92.046875 C 295.183594 92.046875 282.953125 79.816406 282.953125 64.773438 C 282.953125 49.730469 295.183594 37.5 310.226562 37.5 C 325.269531 37.5 337.5 49.730469 337.5 64.773438 C 337.5 79.816406 325.269531 92.046875 310.226562 92.046875 " fill-opacity="1" fill-rule="nonzero"/></g><path fill="#9bbdf9" d="M 285.683594 108.410156 C 275.15625 108.410156 266.589844 99.84375 266.589844 89.316406 C 266.589844 78.792969 275.15625 70.226562 285.683594 70.226562 C 286.234375 70.226562 286.960938 70.226562 287.726562 70.398438 C 289.199219 70.71875 290.136719 72.167969 289.816406 73.636719 C 289.496094 75.128906 288.027344 76.042969 286.578125 75.722656 C 286.363281 75.683594 286.042969 75.683594 285.683594 75.683594 C 278.160156 75.683594 272.046875 81.796875 272.046875 89.316406 C 272.046875 96.839844 278.160156 102.953125 285.683594 102.953125 C 293.203125 102.953125 299.316406 96.839844 299.316406 89.316406 C 299.316406 88.890625 299.316406 88.679688 299.277344 88.488281 C 298.957031 87.015625 299.894531 85.546875 301.363281 85.25 C 302.855469 84.90625 304.28125 85.84375 304.601562 87.316406 C 304.773438 88.105469 304.773438 88.742188 304.773438 89.316406 C 304.773438 99.84375 296.207031 108.410156 285.683594 108.410156 " fill-opacity="1" fill-rule="nonzero"/><g clip-path="url(#c3b4870938)"><path fill="#9bbdf9" d="M 62.046875 124.773438 C 51.519531 124.773438 42.953125 133.339844 42.953125 143.863281 C 42.953125 154.390625 51.519531 162.953125 62.046875 162.953125 C 72.570312 162.953125 81.136719 154.390625 81.136719 143.863281 C 81.136719 133.339844 72.570312 124.773438 62.046875 124.773438 Z M 62.046875 168.410156 C 48.515625 168.410156 37.5 157.394531 37.5 143.863281 C 37.5 130.332031 48.515625 119.316406 62.046875 119.316406 C 75.574219 119.316406 86.589844 130.332031 86.589844 143.863281 C 86.589844 157.394531 75.574219 168.410156 62.046875 168.410156 " fill-opacity="1" fill-rule="nonzero"/></g><path fill="#9bbdf9" d="M 312.953125 135.683594 C 311.441406 135.683594 310.226562 134.46875 310.226562 132.953125 L 310.226562 122.046875 C 310.226562 120.53125 311.441406 119.316406 312.953125 119.316406 C 314.46875 119.316406 315.683594 120.53125 315.683594 122.046875 L 315.683594 132.953125 C 315.683594 134.46875 314.46875 135.683594 312.953125 135.683594 " fill-opacity="1" fill-rule="nonzero"/><path fill="#9bbdf9" d="M 312.953125 168.410156 C 311.441406 168.410156 310.226562 167.195312 310.226562 165.683594 L 310.226562 154.773438 C 310.226562 153.261719 311.441406 152.046875 312.953125 152.046875 C 314.46875 152.046875 315.683594 153.261719 315.683594 154.773438 L 315.683594 165.683594 C 315.683594 167.195312 314.46875 168.410156 312.953125 168.410156 " fill-opacity="1" fill-rule="nonzero"/><g clip-path="url(#d3bd788942)"><path fill="#9bbdf9" d="M 334.773438 146.589844 L 323.863281 146.589844 C 322.351562 146.589844 321.136719 145.375 321.136719 143.863281 C 321.136719 142.351562 322.351562 141.136719 323.863281 141.136719 L 334.773438 141.136719 C 336.285156 141.136719 337.5 142.351562 337.5 143.863281 C 337.5 145.375 336.285156 146.589844 334.773438 146.589844 " fill-opacity="1" fill-rule="nonzero"/></g><path fill="#9bbdf9" d="M 302.046875 146.589844 L 291.136719 146.589844 C 289.625 146.589844 288.410156 145.375 288.410156 143.863281 C 288.410156 142.351562 289.625 141.136719 291.136719 141.136719 L 302.046875 141.136719 C 303.558594 141.136719 304.773438 142.351562 304.773438 143.863281 C 304.773438 145.375 303.558594 146.589844 302.046875 146.589844 " fill-opacity="1" fill-rule="nonzero"/><path fill="#9bbdf9" d="M 111.136719 64.773438 C 109.625 64.773438 108.410156 63.558594 108.410156 62.046875 L 108.410156 51.136719 C 108.410156 49.625 109.625 48.410156 111.136719 48.410156 C 112.648438 48.410156 113.863281 49.625 113.863281 51.136719 L 113.863281 62.046875 C 113.863281 63.558594 112.648438 64.773438 111.136719 64.773438 " fill-opacity="1" fill-rule="nonzero"/><path fill="#9bbdf9" d="M 111.136719 97.5 C 109.625 97.5 108.410156 96.285156 108.410156 94.773438 L 108.410156 83.863281 C 108.410156 82.351562 109.625 81.136719 111.136719 81.136719 C 112.648438 81.136719 113.863281 82.351562 113.863281 83.863281 L 113.863281 94.773438 C 113.863281 96.285156 112.648438 97.5 111.136719 97.5 " fill-opacity="1" fill-rule="nonzero"/><path fill="#9bbdf9" d="M 132.953125 75.683594 L 122.046875 75.683594 C 120.53125 75.683594 119.316406 74.46875 119.316406 72.953125 C 119.316406 71.441406 120.53125 70.226562 122.046875 70.226562 L 132.953125 70.226562 C 134.46875 70.226562 135.683594 71.441406 135.683594 72.953125 C 135.683594 74.46875 134.46875 75.683594 132.953125 75.683594 " fill-opacity="1" fill-rule="nonzero"/><path fill="#9bbdf9" d="M 100.226562 75.683594 L 89.316406 75.683594 C 87.804688 75.683594 86.589844 74.46875 86.589844 72.953125 C 86.589844 71.441406 87.804688 70.226562 89.316406 70.226562 L 100.226562 70.226562 C 101.738281 70.226562 102.953125 71.441406 102.953125 72.953125 C 102.953125 74.46875 101.738281 75.683594 100.226562 75.683594 " fill-opacity="1" fill-rule="nonzero"/><path fill="#9bbdf9" d="M 56.589844 310.226562 C 55.078125 310.226562 53.863281 309.011719 53.863281 307.5 L 53.863281 302.046875 C 53.863281 300.53125 55.078125 299.316406 56.589844 299.316406 C 58.105469 299.316406 59.316406 300.53125 59.316406 302.046875 L 59.316406 307.5 C 59.316406 309.011719 58.105469 310.226562 56.589844 310.226562 " fill-opacity="1" fill-rule="nonzero"/><g clip-path="url(#45a5e08149)"><path fill="#9bbdf9" d="M 56.589844 337.5 C 55.078125 337.5 53.863281 336.285156 53.863281 334.773438 L 53.863281 329.316406 C 53.863281 327.804688 55.078125 326.589844 56.589844 326.589844 C 58.105469 326.589844 59.316406 327.804688 59.316406 329.316406 L 59.316406 334.773438 C 59.316406 336.285156 58.105469 337.5 56.589844 337.5 " fill-opacity="1" fill-rule="nonzero"/></g><path fill="#9bbdf9" d="M 72.953125 321.136719 L 67.5 321.136719 C 65.988281 321.136719 64.773438 319.921875 64.773438 318.410156 C 64.773438 316.894531 65.988281 315.683594 67.5 315.683594 L 72.953125 315.683594 C 74.46875 315.683594 75.683594 316.894531 75.683594 318.410156 C 75.683594 319.921875 74.46875 321.136719 72.953125 321.136719 " fill-opacity="1" fill-rule="nonzero"/><g clip-path="url(#077597a0ad)"><path fill="#9bbdf9" d="M 45.683594 321.136719 L 40.226562 321.136719 C 38.714844 321.136719 37.5 319.921875 37.5 318.410156 C 37.5 316.894531 38.714844 315.683594 40.226562 315.683594 L 45.683594 315.683594 C 47.195312 315.683594 48.410156 316.894531 48.410156 318.410156 C 48.410156 319.921875 47.195312 321.136719 45.683594 321.136719 " fill-opacity="1" fill-rule="nonzero"/></g></svg>